<svg width="90" height="27" viewBox="0 0 90 27" fill="none" xmlns="http://www.w3.org/2000/svg">
<path d="M10.2168 4C11.1554 4.00023 11.9639 4.66934 12.1514 5.60059L12.3525 6.59961H22.0244C23.1152 6.59961 23.9998 7.49521 24 8.59961V19.7002C23.9998 20.6672 23.3218 21.4734 22.4209 21.6592C22.1517 22.4395 21.4182 23 20.5557 23H1.9873C0.89659 22.9998 0.0127885 22.1044 0.0126953 21V10.5684C0.00463607 10.495 0 10.4201 0 10.3447V7.2998C7.54454e-05 6.33269 0.678059 5.52556 1.5791 5.33984C1.84842 4.55966 2.5819 4.00005 3.44434 4H10.2168ZM1.97559 6.7998C1.70291 6.7998 1.48154 7.02374 1.48145 7.2998V13.2363C1.48148 13.2742 1.48616 13.3111 1.49414 13.3467V21C1.49423 21.2759 1.71478 21.4998 1.9873 21.5H20.5557C20.8283 21.4999 21.0497 21.276 21.0498 21V9.90039C21.0498 9.62429 20.8283 9.40045 20.5557 9.40039H9.6748L9.26367 7.20703C9.21946 6.97103 9.01557 6.7998 8.77832 6.7998H1.97559Z" fill="#F4EADE"/>
<path d="M42.622 17.858L42.802 17.984L43.666 17.372L44.8 19.064L43.738 19.784C43.27 20.096 42.778 20.252 42.262 20.252C41.806 20.252 41.398 20.126 41.038 19.874C40.678 19.622 40.45 19.268 40.354 18.812H40.03C39.922 19.016 39.796 19.208 39.652 19.388C39.508 19.556 39.328 19.706 39.112 19.838C38.908 19.958 38.662 20.054 38.374 20.126C38.098 20.21 37.768 20.252 37.384 20.252C36.916 20.252 36.484 20.162 36.088 19.982C35.692 19.79 35.344 19.532 35.044 19.208C34.756 18.872 34.528 18.482 34.36 18.038C34.192 17.594 34.108 17.108 34.108 16.58C34.108 15.776 34.216 15.026 34.432 14.33C34.648 13.634 34.96 13.028 35.368 12.512C35.776 11.984 36.274 11.57 36.862 11.27C37.462 10.97 38.134 10.82 38.878 10.82C39.538 10.82 40.06 10.952 40.444 11.216C40.828 11.48 41.086 11.828 41.218 12.26H41.542L41.794 11.072H44.062L42.622 17.858ZM38.266 18.092C38.698 18.092 39.082 18.008 39.418 17.84C39.754 17.66 40.03 17.426 40.246 17.138C40.474 16.85 40.648 16.514 40.768 16.13C40.888 15.734 40.948 15.32 40.948 14.888C40.948 14.324 40.786 13.868 40.462 13.52C40.138 13.16 39.706 12.98 39.166 12.98C38.734 12.98 38.35 13.07 38.014 13.25C37.678 13.418 37.396 13.646 37.168 13.934C36.94 14.222 36.766 14.564 36.646 14.96C36.526 15.344 36.466 15.752 36.466 16.184C36.466 16.688 36.61 17.132 36.898 17.516C37.198 17.9 37.654 18.092 38.266 18.092ZM50.3675 7.148L49.2515 12.368H49.5755C50.1995 11.336 51.1415 10.82 52.4015 10.82C53.3255 10.82 54.0575 11.132 54.5975 11.756C55.1375 12.38 55.4075 13.208 55.4075 14.24C55.4075 15.164 55.2755 15.998 55.0115 16.742C54.7595 17.486 54.4115 18.122 53.9675 18.65C53.5235 19.166 53.0015 19.562 52.4015 19.838C51.8015 20.114 51.1655 20.252 50.4935 20.252C50.0975 20.252 49.7615 20.21 49.4855 20.126C49.2215 20.042 48.9995 19.928 48.8195 19.784C48.6515 19.64 48.5195 19.478 48.4235 19.298C48.3275 19.106 48.2615 18.908 48.2255 18.704H47.9015L47.6315 20H45.3815L48.0815 7.148H50.3675ZM50.2055 18.092C50.6375 18.08 51.0275 17.99 51.3755 17.822C51.7235 17.642 52.0235 17.402 52.2755 17.102C52.5275 16.802 52.7195 16.46 52.8515 16.076C52.9835 15.68 53.0495 15.26 53.0495 14.816C53.0495 14.252 52.8815 13.808 52.5455 13.484C52.2215 13.148 51.7775 12.98 51.2135 12.98C50.7935 12.98 50.4155 13.064 50.0795 13.232C49.7555 13.4 49.4735 13.634 49.2335 13.934C48.9935 14.222 48.8075 14.57 48.6755 14.978C48.5555 15.374 48.4955 15.8 48.4955 16.256C48.4955 16.832 48.6455 17.282 48.9455 17.606C49.2455 17.93 49.6655 18.092 50.2055 18.092ZM66.087 14.42C66.087 15.26 65.967 16.04 65.727 16.76C65.487 17.468 65.133 18.08 64.665 18.596C64.197 19.112 63.609 19.52 62.901 19.82C62.205 20.108 61.395 20.252 60.471 20.252C59.943 20.252 59.445 20.174 58.977 20.018C58.521 19.862 58.119 19.634 57.771 19.334C57.423 19.022 57.147 18.644 56.943 18.2C56.739 17.756 56.637 17.252 56.637 16.688C56.637 15.764 56.781 14.942 57.069 14.222C57.357 13.49 57.747 12.872 58.239 12.368C58.743 11.864 59.331 11.48 60.003 11.216C60.687 10.952 61.419 10.82 62.199 10.82C62.763 10.82 63.285 10.91 63.765 11.09C64.245 11.258 64.653 11.498 64.989 11.81C65.337 12.122 65.607 12.5 65.799 12.944C65.991 13.388 66.087 13.88 66.087 14.42ZM60.813 18.128C61.245 18.116 61.641 18.02 62.001 17.84C62.373 17.66 62.685 17.426 62.937 17.138C63.201 16.838 63.405 16.49 63.549 16.094C63.693 15.698 63.765 15.278 63.765 14.834C63.765 14.21 63.597 13.742 63.261 13.43C62.925 13.106 62.475 12.944 61.911 12.944C61.479 12.944 61.083 13.04 60.723 13.232C60.363 13.412 60.051 13.658 59.787 13.97C59.523 14.27 59.319 14.618 59.175 15.014C59.031 15.41 58.959 15.824 58.959 16.256C58.959 16.868 59.127 17.336 59.463 17.66C59.799 17.972 60.249 18.128 60.813 18.128ZM71.0785 11.072L69.9625 16.256C69.9145 16.46 69.8905 16.658 69.8905 16.85C69.8905 17.306 70.0165 17.648 70.2685 17.876C70.5205 18.092 70.8565 18.2 71.2765 18.2C71.9125 18.2 72.3985 17.996 72.7345 17.588C73.0825 17.168 73.3405 16.58 73.5085 15.824L74.5165 11.072H76.7845L75.3085 17.876L75.5065 17.984L76.1545 17.516L77.2885 19.172L76.4425 19.784C76.2145 19.952 75.9745 20.072 75.7225 20.144C75.4825 20.216 75.2425 20.252 75.0025 20.252C74.5105 20.252 74.0785 20.114 73.7065 19.838C73.3345 19.55 73.1245 19.136 73.0765 18.596H72.7525C72.4885 19.208 72.1285 19.64 71.6725 19.892C71.2285 20.132 70.7245 20.252 70.1605 20.252C69.3805 20.252 68.7445 20.018 68.2525 19.55C67.7605 19.07 67.5145 18.404 67.5145 17.552C67.5145 17.252 67.5505 16.928 67.6225 16.58L68.8105 11.072H71.0785ZM82.0099 13.232H79.4899V11.072H82.4779L83.3059 7.148H85.5739L84.7459 11.072H87.8419V13.232H84.2779L83.2699 17.858L83.4499 17.984L85.8619 16.328L86.9959 18.02L84.3859 19.784C83.9299 20.096 83.4439 20.252 82.9279 20.252C82.6639 20.252 82.4119 20.204 82.1719 20.108C81.9319 20.024 81.7219 19.898 81.5419 19.73C81.3619 19.562 81.2179 19.358 81.1099 19.118C81.0019 18.878 80.9479 18.608 80.9479 18.308C80.9479 18.212 80.9539 18.128 80.9659 18.056C80.9779 17.972 80.9959 17.864 81.0199 17.732L82.0099 13.232Z" fill="#F4EADE"/>
</svg>
