<svg width="54" height="54" viewBox="0 0 54 54" fill="none" xmlns="http://www.w3.org/2000/svg">
<rect x="1.5" y="1.5" width="51" height="51" rx="8.5" fill="#FD92DA" stroke="#16181C" stroke-width="3"/>
<path d="M39 28.5C39.8284 28.5 40.5 27.8284 40.5 27C40.5 26.1716 39.8284 25.5 39 25.5V27V28.5ZM13.9393 25.9393C13.3536 26.5251 13.3536 27.4749 13.9393 28.0607L23.4853 37.6066C24.0711 38.1924 25.0208 38.1924 25.6066 37.6066C26.1924 37.0208 26.1924 36.0711 25.6066 35.4853L17.1213 27L25.6066 18.5147C26.1924 17.9289 26.1924 16.9792 25.6066 16.3934C25.0208 15.8076 24.0711 15.8076 23.4853 16.3934L13.9393 25.9393ZM39 27V25.5L15 25.5V27V28.5L39 28.5V27Z" fill="black"/>
</svg>
