<svg width="112" height="27" viewBox="0 0 112 27" fill="none" xmlns="http://www.w3.org/2000/svg">
<path d="M10.2168 4C11.1554 4.00023 11.9639 4.66934 12.1514 5.60059L12.3525 6.59961H22.0244C23.1152 6.59961 23.9998 7.49521 24 8.59961V19.7002C23.9998 20.6672 23.3218 21.4734 22.4209 21.6592C22.1517 22.4395 21.4182 23 20.5557 23H1.9873C0.89659 22.9998 0.0127885 22.1044 0.0126953 21V10.5684C0.00463607 10.495 0 10.4201 0 10.3447V7.2998C7.54454e-05 6.33269 0.678059 5.52556 1.5791 5.33984C1.84842 4.55966 2.5819 4.00005 3.44434 4H10.2168ZM1.97559 6.7998C1.70291 6.7998 1.48154 7.02374 1.48145 7.2998V13.2363C1.48148 13.2742 1.48616 13.3111 1.49414 13.3467V21C1.49423 21.2759 1.71478 21.4998 1.9873 21.5H20.5557C20.8283 21.4999 21.0497 21.276 21.0498 21V9.90039C21.0498 9.62429 20.8283 9.40045 20.5557 9.40039H9.6748L9.26367 7.20703C9.21946 6.97103 9.01557 6.7998 8.77832 6.7998H1.97559Z" fill="#F4EADE"/>
<path d="M36.97 16.274C36.946 16.37 36.934 16.472 36.934 16.58C36.934 17.012 37.096 17.372 37.42 17.66C37.756 17.948 38.194 18.092 38.734 18.092C39.298 18.092 39.748 17.99 40.084 17.786C40.42 17.582 40.678 17.342 40.858 17.066L42.658 18.2C42.514 18.44 42.322 18.68 42.082 18.92C41.854 19.16 41.566 19.382 41.218 19.586C40.882 19.778 40.48 19.934 40.012 20.054C39.556 20.186 39.022 20.252 38.41 20.252C37.858 20.252 37.348 20.168 36.88 20C36.424 19.82 36.028 19.58 35.692 19.28C35.368 18.968 35.11 18.602 34.918 18.182C34.738 17.75 34.648 17.276 34.648 16.76C34.648 15.944 34.768 15.176 35.008 14.456C35.26 13.736 35.62 13.106 36.088 12.566C36.556 12.026 37.132 11.6 37.816 11.288C38.5 10.976 39.286 10.82 40.174 10.82C40.798 10.82 41.338 10.922 41.794 11.126C42.262 11.318 42.646 11.582 42.946 11.918C43.246 12.242 43.468 12.614 43.612 13.034C43.768 13.454 43.846 13.886 43.846 14.33C43.846 14.474 43.834 14.624 43.81 14.78C43.798 14.924 43.768 15.116 43.72 15.356L43.522 16.274H36.97ZM39.814 12.872C39.25 12.872 38.758 13.016 38.338 13.304C37.93 13.58 37.624 13.922 37.42 14.33H41.632C41.632 13.874 41.488 13.52 41.2 13.268C40.924 13.004 40.462 12.872 39.814 12.872ZM45.0215 20.864H53.8415V22.916H45.0215V20.864ZM61.389 7.148L60.273 12.368H60.597C61.221 11.336 62.163 10.82 63.423 10.82C64.347 10.82 65.079 11.132 65.619 11.756C66.159 12.38 66.429 13.208 66.429 14.24C66.429 15.164 66.297 15.998 66.033 16.742C65.781 17.486 65.433 18.122 64.989 18.65C64.545 19.166 64.023 19.562 63.423 19.838C62.823 20.114 62.187 20.252 61.515 20.252C61.119 20.252 60.783 20.21 60.507 20.126C60.243 20.042 60.021 19.928 59.841 19.784C59.673 19.64 59.541 19.478 59.445 19.298C59.349 19.106 59.283 18.908 59.247 18.704H58.923L58.653 20H56.403L59.103 7.148H61.389ZM61.227 18.092C61.659 18.08 62.049 17.99 62.397 17.822C62.745 17.642 63.045 17.402 63.297 17.102C63.549 16.802 63.741 16.46 63.873 16.076C64.005 15.68 64.071 15.26 64.071 14.816C64.071 14.252 63.903 13.808 63.567 13.484C63.243 13.148 62.799 12.98 62.235 12.98C61.815 12.98 61.437 13.064 61.101 13.232C60.777 13.4 60.495 13.634 60.255 13.934C60.015 14.222 59.829 14.57 59.697 14.978C59.577 15.374 59.517 15.8 59.517 16.256C59.517 16.832 59.667 17.282 59.967 17.606C60.267 17.93 60.687 18.092 61.227 18.092ZM77.1085 14.42C77.1085 15.26 76.9885 16.04 76.7485 16.76C76.5085 17.468 76.1545 18.08 75.6865 18.596C75.2185 19.112 74.6305 19.52 73.9225 19.82C73.2265 20.108 72.4165 20.252 71.4925 20.252C70.9645 20.252 70.4665 20.174 69.9985 20.018C69.5425 19.862 69.1405 19.634 68.7925 19.334C68.4445 19.022 68.1685 18.644 67.9645 18.2C67.7605 17.756 67.6585 17.252 67.6585 16.688C67.6585 15.764 67.8025 14.942 68.0905 14.222C68.3785 13.49 68.7685 12.872 69.2605 12.368C69.7645 11.864 70.3525 11.48 71.0245 11.216C71.7085 10.952 72.4405 10.82 73.2205 10.82C73.7845 10.82 74.3065 10.91 74.7865 11.09C75.2665 11.258 75.6745 11.498 76.0105 11.81C76.3585 12.122 76.6285 12.5 76.8205 12.944C77.0125 13.388 77.1085 13.88 77.1085 14.42ZM71.8345 18.128C72.2665 18.116 72.6625 18.02 73.0225 17.84C73.3945 17.66 73.7065 17.426 73.9585 17.138C74.2225 16.838 74.4265 16.49 74.5705 16.094C74.7145 15.698 74.7865 15.278 74.7865 14.834C74.7865 14.21 74.6185 13.742 74.2825 13.43C73.9465 13.106 73.4965 12.944 72.9325 12.944C72.5005 12.944 72.1045 13.04 71.7445 13.232C71.3845 13.412 71.0725 13.658 70.8085 13.97C70.5445 14.27 70.3405 14.618 70.1965 15.014C70.0525 15.41 69.9805 15.824 69.9805 16.256C69.9805 16.868 70.1485 17.336 70.4845 17.66C70.8205 17.972 71.2705 18.128 71.8345 18.128ZM86.7079 17.858L86.8879 17.984L87.7519 17.372L88.8859 19.064L87.8239 19.784C87.3559 20.096 86.8639 20.252 86.3479 20.252C85.8919 20.252 85.4839 20.126 85.1239 19.874C84.7639 19.622 84.5359 19.268 84.4399 18.812H84.1159C84.0079 19.016 83.8819 19.208 83.7379 19.388C83.5939 19.556 83.4139 19.706 83.1979 19.838C82.9939 19.958 82.7479 20.054 82.4599 20.126C82.1839 20.21 81.8539 20.252 81.4699 20.252C81.0019 20.252 80.5699 20.162 80.1739 19.982C79.7779 19.79 79.4299 19.532 79.1299 19.208C78.8419 18.872 78.6139 18.482 78.4459 18.038C78.2779 17.594 78.1939 17.108 78.1939 16.58C78.1939 15.776 78.3019 15.026 78.5179 14.33C78.7339 13.634 79.0459 13.028 79.4539 12.512C79.8619 11.984 80.3599 11.57 80.9479 11.27C81.5479 10.97 82.2199 10.82 82.9639 10.82C83.6239 10.82 84.1459 10.952 84.5299 11.216C84.9139 11.48 85.1719 11.828 85.3039 12.26H85.6279L85.8799 11.072H88.1479L86.7079 17.858ZM82.3519 18.092C82.7839 18.092 83.1679 18.008 83.5039 17.84C83.8399 17.66 84.1159 17.426 84.3319 17.138C84.5599 16.85 84.7339 16.514 84.8539 16.13C84.9739 15.734 85.0339 15.32 85.0339 14.888C85.0339 14.324 84.8719 13.868 84.5479 13.52C84.2239 13.16 83.7919 12.98 83.2519 12.98C82.8199 12.98 82.4359 13.07 82.0999 13.25C81.7639 13.418 81.4819 13.646 81.2539 13.934C81.0259 14.222 80.8519 14.564 80.7319 14.96C80.6119 15.344 80.5519 15.752 80.5519 16.184C80.5519 16.688 80.6959 17.132 80.9839 17.516C81.2839 17.9 81.7399 18.092 82.3519 18.092ZM92.3114 13.196L92.1314 13.088L90.7094 14.132L89.5034 12.512L90.9434 11.432C91.2194 11.228 91.5074 11.078 91.8074 10.982C92.1194 10.874 92.4134 10.82 92.6894 10.82C93.1694 10.82 93.5894 10.952 93.9494 11.216C94.3094 11.48 94.5254 11.852 94.5974 12.332H94.9214C95.1614 11.828 95.4974 11.45 95.9294 11.198C96.3614 10.946 96.8474 10.82 97.3874 10.82C98.0714 10.82 98.6234 11.036 99.0434 11.468C99.4754 11.888 99.6914 12.476 99.6914 13.232C99.6914 13.388 99.6794 13.544 99.6554 13.7C99.6434 13.844 99.6134 14.024 99.5654 14.24L99.4754 14.636L97.0634 14.816L97.1174 14.564C97.1534 14.384 97.1714 14.222 97.1714 14.078C97.1714 13.73 97.0754 13.454 96.8834 13.25C96.6914 13.046 96.4034 12.944 96.0194 12.944C95.5394 12.944 95.1554 13.106 94.8674 13.43C94.5914 13.754 94.3874 14.216 94.2554 14.816L93.6074 17.84H95.7674V20H89.6114V17.84H91.3394L92.3114 13.196ZM108.751 17.858L108.931 17.984L109.903 17.3L111.037 18.992L109.867 19.784C109.615 19.952 109.363 20.072 109.111 20.144C108.871 20.216 108.631 20.252 108.391 20.252C107.935 20.252 107.527 20.126 107.167 19.874C106.807 19.622 106.579 19.268 106.483 18.812H106.159C106.051 19.016 105.925 19.208 105.781 19.388C105.637 19.556 105.457 19.706 105.241 19.838C105.037 19.958 104.791 20.054 104.503 20.126C104.227 20.21 103.897 20.252 103.513 20.252C103.045 20.252 102.613 20.162 102.217 19.982C101.821 19.79 101.473 19.532 101.173 19.208C100.885 18.872 100.657 18.482 100.489 18.038C100.321 17.594 100.237 17.108 100.237 16.58C100.237 15.776 100.345 15.026 100.561 14.33C100.777 13.634 101.089 13.028 101.497 12.512C101.905 11.984 102.403 11.57 102.991 11.27C103.591 10.97 104.263 10.82 105.007 10.82C105.643 10.82 106.159 10.964 106.555 11.252C106.951 11.54 107.209 11.912 107.329 12.368H107.653L108.751 7.148H111.037L109.921 12.368L108.751 17.858ZM104.395 18.092C104.827 18.092 105.211 18.008 105.547 17.84C105.883 17.66 106.159 17.426 106.375 17.138C106.603 16.85 106.777 16.514 106.897 16.13C107.017 15.734 107.077 15.32 107.077 14.888C107.077 14.324 106.915 13.868 106.591 13.52C106.267 13.16 105.835 12.98 105.295 12.98C104.863 12.98 104.479 13.07 104.143 13.25C103.807 13.418 103.525 13.646 103.297 13.934C103.069 14.222 102.895 14.564 102.775 14.96C102.655 15.344 102.595 15.752 102.595 16.184C102.595 16.688 102.739 17.132 103.027 17.516C103.327 17.9 103.783 18.092 104.395 18.092Z" fill="#F4EADE"/>
</svg>
