<svg width="101" height="27" viewBox="0 0 101 27" fill="none" xmlns="http://www.w3.org/2000/svg">
<path d="M10.2168 4C11.1554 4.00023 11.9639 4.66934 12.1514 5.60059L12.3525 6.59961H22.0244C23.1152 6.59961 23.9998 7.49521 24 8.59961V19.7002C23.9998 20.6672 23.3218 21.4734 22.4209 21.6592C22.1517 22.4395 21.4182 23 20.5557 23H1.9873C0.89659 22.9998 0.0127885 22.1044 0.0126953 21V10.5684C0.00463607 10.495 0 10.4201 0 10.3447V7.2998C7.54454e-05 6.33269 0.678059 5.52556 1.5791 5.33984C1.84842 4.55966 2.5819 4.00005 3.44434 4H10.2168ZM1.97559 6.7998C1.70291 6.7998 1.48154 7.02374 1.48145 7.2998V13.2363C1.48148 13.2742 1.48616 13.3111 1.49414 13.3467V21C1.49423 21.2759 1.71478 21.4998 1.9873 21.5H20.5557C20.8283 21.4999 21.0497 21.276 21.0498 21V9.90039C21.0498 9.62429 20.8283 9.40045 20.5557 9.40039H9.6748L9.26367 7.20703C9.21946 6.97103 9.01557 6.7998 8.77832 6.7998H1.97559Z" fill="#F4EADE"/>
<path d="M36.97 16.274C36.946 16.37 36.934 16.472 36.934 16.58C36.934 17.012 37.096 17.372 37.42 17.66C37.756 17.948 38.194 18.092 38.734 18.092C39.298 18.092 39.748 17.99 40.084 17.786C40.42 17.582 40.678 17.342 40.858 17.066L42.658 18.2C42.514 18.44 42.322 18.68 42.082 18.92C41.854 19.16 41.566 19.382 41.218 19.586C40.882 19.778 40.48 19.934 40.012 20.054C39.556 20.186 39.022 20.252 38.41 20.252C37.858 20.252 37.348 20.168 36.88 20C36.424 19.82 36.028 19.58 35.692 19.28C35.368 18.968 35.11 18.602 34.918 18.182C34.738 17.75 34.648 17.276 34.648 16.76C34.648 15.944 34.768 15.176 35.008 14.456C35.26 13.736 35.62 13.106 36.088 12.566C36.556 12.026 37.132 11.6 37.816 11.288C38.5 10.976 39.286 10.82 40.174 10.82C40.798 10.82 41.338 10.922 41.794 11.126C42.262 11.318 42.646 11.582 42.946 11.918C43.246 12.242 43.468 12.614 43.612 13.034C43.768 13.454 43.846 13.886 43.846 14.33C43.846 14.474 43.834 14.624 43.81 14.78C43.798 14.924 43.768 15.116 43.72 15.356L43.522 16.274H36.97ZM39.814 12.872C39.25 12.872 38.758 13.016 38.338 13.304C37.93 13.58 37.624 13.922 37.42 14.33H41.632C41.632 13.874 41.488 13.52 41.2 13.268C40.924 13.004 40.462 12.872 39.814 12.872ZM47.4515 13.268L47.2355 13.196L46.5335 14.078L44.9675 12.8L45.8135 11.72C46.0535 11.42 46.3295 11.198 46.6415 11.054C46.9655 10.898 47.3015 10.82 47.6495 10.82C47.9015 10.82 48.1475 10.862 48.3875 10.946C48.6275 11.03 48.8375 11.156 49.0175 11.324C49.2095 11.48 49.3655 11.684 49.4855 11.936C49.6055 12.188 49.6775 12.476 49.7015 12.8L50.0795 18.92H50.4035L54.0395 10.928L56.0735 11.918L52.2935 20H47.9195L47.4515 13.268ZM59.013 16.274C58.989 16.37 58.977 16.472 58.977 16.58C58.977 17.012 59.139 17.372 59.463 17.66C59.799 17.948 60.237 18.092 60.777 18.092C61.341 18.092 61.791 17.99 62.127 17.786C62.463 17.582 62.721 17.342 62.901 17.066L64.701 18.2C64.557 18.44 64.365 18.68 64.125 18.92C63.897 19.16 63.609 19.382 63.261 19.586C62.925 19.778 62.523 19.934 62.055 20.054C61.599 20.186 61.065 20.252 60.453 20.252C59.901 20.252 59.391 20.168 58.923 20C58.467 19.82 58.071 19.58 57.735 19.28C57.411 18.968 57.153 18.602 56.961 18.182C56.781 17.75 56.691 17.276 56.691 16.76C56.691 15.944 56.811 15.176 57.051 14.456C57.303 13.736 57.663 13.106 58.131 12.566C58.599 12.026 59.175 11.6 59.859 11.288C60.543 10.976 61.329 10.82 62.217 10.82C62.841 10.82 63.381 10.922 63.837 11.126C64.305 11.318 64.689 11.582 64.989 11.918C65.289 12.242 65.511 12.614 65.655 13.034C65.811 13.454 65.889 13.886 65.889 14.33C65.889 14.474 65.877 14.624 65.853 14.78C65.841 14.924 65.811 15.116 65.763 15.356L65.565 16.274H59.013ZM61.857 12.872C61.293 12.872 60.801 13.016 60.381 13.304C59.973 13.58 59.667 13.922 59.463 14.33H63.675C63.675 13.874 63.531 13.52 63.243 13.268C62.967 13.004 62.505 12.872 61.857 12.872ZM73.8865 14.816C73.9345 14.588 73.9585 14.396 73.9585 14.24C73.9585 13.808 73.8325 13.472 73.5805 13.232C73.3285 12.992 72.9865 12.872 72.5545 12.872C72.0145 12.872 71.5525 13.064 71.1685 13.448C70.7845 13.832 70.5265 14.348 70.3945 14.996L69.3325 20H67.0645L68.9545 11.072H71.1325L70.8265 12.512H71.1505C71.4385 11.912 71.8165 11.48 72.2845 11.216C72.7645 10.952 73.2925 10.82 73.8685 10.82C74.6245 10.82 75.2245 11.048 75.6685 11.504C76.1245 11.96 76.3525 12.602 76.3525 13.43C76.3525 13.622 76.3405 13.802 76.3165 13.97C76.2925 14.126 76.2625 14.3 76.2265 14.492L75.5065 17.858L75.6865 17.984L76.4605 17.444L77.5945 19.136L76.6225 19.784C76.1665 20.096 75.6805 20.252 75.1645 20.252C74.9005 20.252 74.6485 20.204 74.4085 20.108C74.1685 20.024 73.9585 19.904 73.7785 19.748C73.5985 19.58 73.4545 19.382 73.3465 19.154C73.2385 18.914 73.1845 18.644 73.1845 18.344C73.1845 18.188 73.2025 18.008 73.2385 17.804L73.8865 14.816ZM82.0099 13.232H79.4899V11.072H82.4779L83.3059 7.148H85.5739L84.7459 11.072H87.8419V13.232H84.2779L83.2699 17.858L83.4499 17.984L85.8619 16.328L86.9959 18.02L84.3859 19.784C83.9299 20.096 83.4439 20.252 82.9279 20.252C82.6639 20.252 82.4119 20.204 82.1719 20.108C81.9319 20.024 81.7219 19.898 81.5419 19.73C81.3619 19.562 81.2179 19.358 81.1099 19.118C81.0019 18.878 80.9479 18.608 80.9479 18.308C80.9479 18.212 80.9539 18.128 80.9659 18.056C80.9779 17.972 80.9959 17.864 81.0199 17.732L82.0099 13.232ZM94.9034 12.872C94.7714 12.872 94.6334 12.89 94.4894 12.926C94.3574 12.95 94.2314 12.992 94.1114 13.052C93.9914 13.112 93.8894 13.196 93.8054 13.304C93.7334 13.4 93.6974 13.52 93.6974 13.664C93.6974 13.916 93.8414 14.102 94.1294 14.222C94.4174 14.342 94.9094 14.444 95.6054 14.528C96.3854 14.624 97.0154 14.864 97.4954 15.248C97.9754 15.62 98.2154 16.16 98.2154 16.868C98.2154 17.924 97.8434 18.752 97.0994 19.352C96.3674 19.952 95.3474 20.252 94.0394 20.252C93.3794 20.252 92.8094 20.156 92.3294 19.964C91.8614 19.772 91.4714 19.532 91.1594 19.244C90.8594 18.956 90.6314 18.638 90.4754 18.29C90.3194 17.942 90.2354 17.612 90.2234 17.3L92.4554 16.76C92.4914 17.156 92.6594 17.498 92.9594 17.786C93.2594 18.062 93.7154 18.2 94.3274 18.2C94.7474 18.2 95.1134 18.134 95.4254 18.002C95.7374 17.87 95.8934 17.636 95.8934 17.3C95.8934 17.048 95.7734 16.85 95.5334 16.706C95.2934 16.55 94.8494 16.442 94.2014 16.382C93.3374 16.31 92.6474 16.064 92.1314 15.644C91.6274 15.224 91.3754 14.666 91.3754 13.97C91.3754 13.466 91.4774 13.016 91.6814 12.62C91.8974 12.224 92.1794 11.894 92.5274 11.63C92.8754 11.366 93.2774 11.168 93.7334 11.036C94.2014 10.892 94.6874 10.82 95.1914 10.82C95.8154 10.82 96.3374 10.904 96.7574 11.072C97.1774 11.24 97.5194 11.45 97.7834 11.702C98.0474 11.954 98.2394 12.23 98.3594 12.53C98.4914 12.818 98.5754 13.088 98.6114 13.34L96.4154 13.916C96.3674 13.592 96.2174 13.34 95.9654 13.16C95.7134 12.968 95.3594 12.872 94.9034 12.872Z" fill="#F4EADE"/>
</svg>
