<svg width="54" height="54" viewBox="0 0 54 54" fill="none" xmlns="http://www.w3.org/2000/svg">
<rect x="52.5" y="52.5" width="51" height="51" rx="8.5" transform="rotate(180 52.5 52.5)" fill="#FD92DA" stroke="#16181C" stroke-width="3"/>
<path d="M40.0607 28.0607C40.6464 27.4749 40.6464 26.5251 40.0607 25.9393L30.5147 16.3934C29.9289 15.8076 28.9792 15.8076 28.3934 16.3934C27.8076 16.9792 27.8076 17.9289 28.3934 18.5147L36.8787 27L28.3934 35.4853C27.8076 36.0711 27.8076 37.0208 28.3934 37.6066C28.9792 38.1924 29.9289 38.1924 30.5147 37.6066L40.0607 28.0607ZM15 27L15 28.5L39 28.5L39 27L39 25.5L15 25.5L15 27Z" fill="black"/>
</svg>
