<svg width="178" height="27" viewBox="0 0 178 27" fill="none" xmlns="http://www.w3.org/2000/svg">
<path d="M10.2168 4C11.1554 4.00023 11.9639 4.66934 12.1514 5.60059L12.3525 6.59961H22.0244C23.1152 6.59961 23.9998 7.49521 24 8.59961V19.7002C23.9998 20.6672 23.3218 21.4734 22.4209 21.6592C22.1517 22.4395 21.4182 23 20.5557 23H1.9873C0.89659 22.9998 0.0127885 22.1044 0.0126953 21V10.5684C0.00463607 10.495 0 10.4201 0 10.3447V7.2998C7.54454e-05 6.33269 0.678059 5.52556 1.5791 5.33984C1.84842 4.55966 2.5819 4.00005 3.44434 4H10.2168ZM1.97559 6.7998C1.70291 6.7998 1.48154 7.02374 1.48145 7.2998V13.2363C1.48148 13.2742 1.48616 13.3111 1.49414 13.3467V21C1.49423 21.2759 1.71478 21.4998 1.9873 21.5H20.5557C20.8283 21.4999 21.0497 21.276 21.0498 21V9.90039C21.0498 9.62429 20.8283 9.40045 20.5557 9.40039H9.6748L9.26367 7.20703C9.21946 6.97103 9.01557 6.7998 8.77832 6.7998H1.97559Z" fill="#F4EADE"/>
<path d="M40.912 18.704H40.588C40.456 18.908 40.306 19.106 40.138 19.298C39.97 19.478 39.766 19.64 39.526 19.784C39.286 19.928 38.998 20.042 38.662 20.126C38.326 20.21 37.936 20.252 37.492 20.252C37.06 20.252 36.652 20.18 36.268 20.036C35.896 19.892 35.572 19.676 35.296 19.388C35.02 19.1 34.798 18.74 34.63 18.308C34.474 17.864 34.396 17.348 34.396 16.76C34.396 16.016 34.504 15.29 34.72 14.582C34.948 13.862 35.278 13.226 35.71 12.674C36.142 12.11 36.676 11.66 37.312 11.324C37.96 10.988 38.71 10.82 39.562 10.82C40.294 10.82 40.846 10.964 41.218 11.252C41.602 11.528 41.842 11.9 41.938 12.368H42.262L42.532 11.072H44.8L42.442 22.196C42.346 22.604 42.142 22.94 41.83 23.204C41.518 23.468 41.158 23.6 40.75 23.6H35.206V21.44H39.85C40.174 21.44 40.372 21.26 40.444 20.9L40.912 18.704ZM38.662 18.092C39.094 18.092 39.49 18.002 39.85 17.822C40.222 17.642 40.54 17.402 40.804 17.102C41.08 16.802 41.29 16.454 41.434 16.058C41.59 15.662 41.668 15.248 41.668 14.816C41.668 14.24 41.5 13.79 41.164 13.466C40.828 13.142 40.354 12.98 39.742 12.98C39.286 12.98 38.872 13.07 38.5 13.25C38.128 13.43 37.81 13.67 37.546 13.97C37.294 14.258 37.096 14.6 36.952 14.996C36.808 15.38 36.736 15.776 36.736 16.184C36.736 16.82 36.91 17.3 37.258 17.624C37.618 17.936 38.086 18.092 38.662 18.092ZM47.9915 16.274C47.9675 16.37 47.9555 16.472 47.9555 16.58C47.9555 17.012 48.1175 17.372 48.4415 17.66C48.7775 17.948 49.2155 18.092 49.7555 18.092C50.3195 18.092 50.7695 17.99 51.1055 17.786C51.4415 17.582 51.6995 17.342 51.8795 17.066L53.6795 18.2C53.5355 18.44 53.3435 18.68 53.1035 18.92C52.8755 19.16 52.5875 19.382 52.2395 19.586C51.9035 19.778 51.5015 19.934 51.0335 20.054C50.5775 20.186 50.0435 20.252 49.4315 20.252C48.8795 20.252 48.3695 20.168 47.9015 20C47.4455 19.82 47.0495 19.58 46.7135 19.28C46.3895 18.968 46.1315 18.602 45.9395 18.182C45.7595 17.75 45.6695 17.276 45.6695 16.76C45.6695 15.944 45.7895 15.176 46.0295 14.456C46.2815 13.736 46.6415 13.106 47.1095 12.566C47.5775 12.026 48.1535 11.6 48.8375 11.288C49.5215 10.976 50.3075 10.82 51.1955 10.82C51.8195 10.82 52.3595 10.922 52.8155 11.126C53.2835 11.318 53.6675 11.582 53.9675 11.918C54.2675 12.242 54.4895 12.614 54.6335 13.034C54.7895 13.454 54.8675 13.886 54.8675 14.33C54.8675 14.474 54.8555 14.624 54.8315 14.78C54.8195 14.924 54.7895 15.116 54.7415 15.356L54.5435 16.274H47.9915ZM50.8355 12.872C50.2715 12.872 49.7795 13.016 49.3595 13.304C48.9515 13.58 48.6455 13.922 48.4415 14.33H52.6535C52.6535 13.874 52.5095 13.52 52.2215 13.268C51.9455 13.004 51.4835 12.872 50.8355 12.872ZM59.967 13.232H57.447V11.072H60.435L61.263 7.148H63.531L62.703 11.072H65.799V13.232H62.235L61.227 17.858L61.407 17.984L63.819 16.328L64.953 18.02L62.343 19.784C61.887 20.096 61.401 20.252 60.885 20.252C60.621 20.252 60.369 20.204 60.129 20.108C59.889 20.024 59.679 19.898 59.499 19.73C59.319 19.562 59.175 19.358 59.067 19.118C58.959 18.878 58.905 18.608 58.905 18.308C58.905 18.212 58.911 18.128 58.923 18.056C58.935 17.972 58.953 17.864 58.977 17.732L59.967 13.232ZM67.0645 20.864H75.8845V22.916H67.0645V20.864ZM87.6979 16.724C87.3619 17.792 86.7619 18.65 85.8979 19.298C85.0459 19.934 83.8999 20.252 82.4599 20.252C81.9319 20.252 81.4339 20.168 80.9659 20C80.4979 19.832 80.0899 19.58 79.7419 19.244C79.3939 18.908 79.1179 18.494 78.9139 18.002C78.7219 17.498 78.6259 16.916 78.6259 16.256C78.6259 15.512 78.7519 14.81 79.0039 14.15C79.2679 13.49 79.6459 12.914 80.1379 12.422C80.6299 11.93 81.2239 11.54 81.9199 11.252C82.6159 10.964 83.4079 10.82 84.2959 10.82C84.9439 10.82 85.5139 10.916 86.0059 11.108C86.4979 11.3 86.9059 11.564 87.2299 11.9C87.5539 12.224 87.7999 12.608 87.9679 13.052C88.1359 13.496 88.2199 13.964 88.2199 14.456L85.9159 14.906C85.9159 14.294 85.7599 13.82 85.4479 13.484C85.1479 13.148 84.6559 12.98 83.9719 12.98C83.5399 12.98 83.1379 13.064 82.7659 13.232C82.4059 13.388 82.0879 13.61 81.8119 13.898C81.5479 14.174 81.3379 14.504 81.1819 14.888C81.0379 15.26 80.9659 15.662 80.9659 16.094C80.9659 16.778 81.1459 17.282 81.5059 17.606C81.8659 17.93 82.3219 18.092 82.8739 18.092C83.6299 18.092 84.2179 17.924 84.6379 17.588C85.0579 17.252 85.3759 16.778 85.5919 16.166L87.6979 16.724ZM99.1514 14.42C99.1514 15.26 99.0314 16.04 98.7914 16.76C98.5514 17.468 98.1974 18.08 97.7294 18.596C97.2614 19.112 96.6734 19.52 95.9654 19.82C95.2694 20.108 94.4594 20.252 93.5354 20.252C93.0074 20.252 92.5094 20.174 92.0414 20.018C91.5854 19.862 91.1834 19.634 90.8354 19.334C90.4874 19.022 90.2114 18.644 90.0074 18.2C89.8034 17.756 89.7014 17.252 89.7014 16.688C89.7014 15.764 89.8454 14.942 90.1334 14.222C90.4214 13.49 90.8114 12.872 91.3034 12.368C91.8074 11.864 92.3954 11.48 93.0674 11.216C93.7514 10.952 94.4834 10.82 95.2634 10.82C95.8274 10.82 96.3494 10.91 96.8294 11.09C97.3094 11.258 97.7174 11.498 98.0534 11.81C98.4014 12.122 98.6714 12.5 98.8634 12.944C99.0554 13.388 99.1514 13.88 99.1514 14.42ZM93.8774 18.128C94.3094 18.116 94.7054 18.02 95.0654 17.84C95.4374 17.66 95.7494 17.426 96.0014 17.138C96.2654 16.838 96.4694 16.49 96.6134 16.094C96.7574 15.698 96.8294 15.278 96.8294 14.834C96.8294 14.21 96.6614 13.742 96.3254 13.43C95.9894 13.106 95.5394 12.944 94.9754 12.944C94.5434 12.944 94.1474 13.04 93.7874 13.232C93.4274 13.412 93.1154 13.658 92.8514 13.97C92.5874 14.27 92.3834 14.618 92.2394 15.014C92.0954 15.41 92.0234 15.824 92.0234 16.256C92.0234 16.868 92.1914 17.336 92.5274 17.66C92.8634 17.972 93.3134 18.128 93.8774 18.128ZM106.951 14.816C106.999 14.588 107.023 14.396 107.023 14.24C107.023 13.808 106.897 13.472 106.645 13.232C106.393 12.992 106.051 12.872 105.619 12.872C105.079 12.872 104.617 13.064 104.233 13.448C103.849 13.832 103.591 14.348 103.459 14.996L102.397 20H100.129L102.019 11.072H104.197L103.891 12.512H104.215C104.503 11.912 104.881 11.48 105.349 11.216C105.829 10.952 106.357 10.82 106.933 10.82C107.689 10.82 108.289 11.048 108.733 11.504C109.189 11.96 109.417 12.602 109.417 13.43C109.417 13.622 109.405 13.802 109.381 13.97C109.357 14.126 109.327 14.3 109.291 14.492L108.571 17.858L108.751 17.984L109.525 17.444L110.659 19.136L109.687 19.784C109.231 20.096 108.745 20.252 108.229 20.252C107.965 20.252 107.713 20.204 107.473 20.108C107.233 20.024 107.023 19.904 106.843 19.748C106.663 19.58 106.519 19.382 106.411 19.154C106.303 18.914 106.249 18.644 106.249 18.344C106.249 18.188 106.267 18.008 106.303 17.804L106.951 14.816ZM117.972 14.816C118.02 14.588 118.044 14.396 118.044 14.24C118.044 13.808 117.918 13.472 117.666 13.232C117.414 12.992 117.072 12.872 116.64 12.872C116.1 12.872 115.638 13.064 115.254 13.448C114.87 13.832 114.612 14.348 114.48 14.996L113.418 20H111.15L113.04 11.072H115.218L114.912 12.512H115.236C115.524 11.912 115.902 11.48 116.37 11.216C116.85 10.952 117.378 10.82 117.954 10.82C118.71 10.82 119.31 11.048 119.754 11.504C120.21 11.96 120.438 12.602 120.438 13.43C120.438 13.622 120.426 13.802 120.402 13.97C120.378 14.126 120.348 14.3 120.312 14.492L119.592 17.858L119.772 17.984L120.546 17.444L121.68 19.136L120.708 19.784C120.252 20.096 119.766 20.252 119.25 20.252C118.986 20.252 118.734 20.204 118.494 20.108C118.254 20.024 118.044 19.904 117.864 19.748C117.684 19.58 117.54 19.382 117.432 19.154C117.324 18.914 117.27 18.644 117.27 18.344C117.27 18.188 117.288 18.008 117.324 17.804L117.972 14.816ZM125.142 16.274C125.118 16.37 125.106 16.472 125.106 16.58C125.106 17.012 125.268 17.372 125.592 17.66C125.928 17.948 126.366 18.092 126.906 18.092C127.47 18.092 127.92 17.99 128.256 17.786C128.592 17.582 128.85 17.342 129.03 17.066L130.83 18.2C130.686 18.44 130.494 18.68 130.254 18.92C130.026 19.16 129.738 19.382 129.39 19.586C129.054 19.778 128.652 19.934 128.184 20.054C127.728 20.186 127.194 20.252 126.582 20.252C126.03 20.252 125.52 20.168 125.052 20C124.596 19.82 124.2 19.58 123.864 19.28C123.54 18.968 123.282 18.602 123.09 18.182C122.91 17.75 122.82 17.276 122.82 16.76C122.82 15.944 122.94 15.176 123.18 14.456C123.432 13.736 123.792 13.106 124.26 12.566C124.728 12.026 125.304 11.6 125.988 11.288C126.672 10.976 127.458 10.82 128.346 10.82C128.97 10.82 129.51 10.922 129.966 11.126C130.434 11.318 130.818 11.582 131.118 11.918C131.418 12.242 131.64 12.614 131.784 13.034C131.94 13.454 132.018 13.886 132.018 14.33C132.018 14.474 132.006 14.624 131.982 14.78C131.97 14.924 131.94 15.116 131.892 15.356L131.694 16.274H125.142ZM127.986 12.872C127.422 12.872 126.93 13.016 126.51 13.304C126.102 13.58 125.796 13.922 125.592 14.33H129.804C129.804 13.874 129.66 13.52 129.372 13.268C129.096 13.004 128.634 12.872 127.986 12.872ZM142.805 16.724C142.469 17.792 141.869 18.65 141.005 19.298C140.153 19.934 139.007 20.252 137.567 20.252C137.039 20.252 136.541 20.168 136.073 20C135.605 19.832 135.197 19.58 134.849 19.244C134.501 18.908 134.225 18.494 134.021 18.002C133.829 17.498 133.733 16.916 133.733 16.256C133.733 15.512 133.859 14.81 134.111 14.15C134.375 13.49 134.753 12.914 135.245 12.422C135.737 11.93 136.331 11.54 137.027 11.252C137.723 10.964 138.515 10.82 139.403 10.82C140.051 10.82 140.621 10.916 141.113 11.108C141.605 11.3 142.013 11.564 142.337 11.9C142.661 12.224 142.907 12.608 143.075 13.052C143.243 13.496 143.327 13.964 143.327 14.456L141.023 14.906C141.023 14.294 140.867 13.82 140.555 13.484C140.255 13.148 139.763 12.98 139.079 12.98C138.647 12.98 138.245 13.064 137.873 13.232C137.513 13.388 137.195 13.61 136.919 13.898C136.655 14.174 136.445 14.504 136.289 14.888C136.145 15.26 136.073 15.662 136.073 16.094C136.073 16.778 136.253 17.282 136.613 17.606C136.973 17.93 137.429 18.092 137.981 18.092C138.737 18.092 139.325 17.924 139.745 17.588C140.165 17.252 140.483 16.778 140.699 16.166L142.805 16.724ZM148.139 13.232H145.619V11.072H148.607L149.435 7.148H151.703L150.875 11.072H153.971V13.232H150.407L149.399 17.858L149.579 17.984L151.991 16.328L153.125 18.02L150.515 19.784C150.059 20.096 149.573 20.252 149.057 20.252C148.793 20.252 148.541 20.204 148.301 20.108C148.061 20.024 147.851 19.898 147.671 19.73C147.491 19.562 147.347 19.358 147.239 19.118C147.131 18.878 147.077 18.608 147.077 18.308C147.077 18.212 147.083 18.128 147.095 18.056C147.107 17.972 147.125 17.864 147.149 17.732L148.139 13.232ZM158.206 16.274C158.182 16.37 158.17 16.472 158.17 16.58C158.17 17.012 158.332 17.372 158.656 17.66C158.992 17.948 159.43 18.092 159.97 18.092C160.534 18.092 160.984 17.99 161.32 17.786C161.656 17.582 161.914 17.342 162.094 17.066L163.894 18.2C163.75 18.44 163.558 18.68 163.318 18.92C163.09 19.16 162.802 19.382 162.454 19.586C162.118 19.778 161.716 19.934 161.248 20.054C160.792 20.186 160.258 20.252 159.646 20.252C159.094 20.252 158.584 20.168 158.116 20C157.66 19.82 157.264 19.58 156.928 19.28C156.604 18.968 156.346 18.602 156.154 18.182C155.974 17.75 155.884 17.276 155.884 16.76C155.884 15.944 156.004 15.176 156.244 14.456C156.496 13.736 156.856 13.106 157.324 12.566C157.792 12.026 158.368 11.6 159.052 11.288C159.736 10.976 160.522 10.82 161.41 10.82C162.034 10.82 162.574 10.922 163.03 11.126C163.498 11.318 163.882 11.582 164.182 11.918C164.482 12.242 164.704 12.614 164.848 13.034C165.004 13.454 165.082 13.886 165.082 14.33C165.082 14.474 165.07 14.624 165.046 14.78C165.034 14.924 165.004 15.116 164.956 15.356L164.758 16.274H158.206ZM161.05 12.872C160.486 12.872 159.994 13.016 159.574 13.304C159.166 13.58 158.86 13.922 158.656 14.33H162.868C162.868 13.874 162.724 13.52 162.436 13.268C162.16 13.004 161.698 12.872 161.05 12.872ZM174.88 17.858L175.06 17.984L176.032 17.3L177.166 18.992L175.996 19.784C175.744 19.952 175.492 20.072 175.24 20.144C175 20.216 174.76 20.252 174.52 20.252C174.064 20.252 173.656 20.126 173.296 19.874C172.936 19.622 172.708 19.268 172.612 18.812H172.288C172.18 19.016 172.054 19.208 171.91 19.388C171.766 19.556 171.586 19.706 171.37 19.838C171.166 19.958 170.92 20.054 170.632 20.126C170.356 20.21 170.026 20.252 169.642 20.252C169.174 20.252 168.742 20.162 168.346 19.982C167.95 19.79 167.602 19.532 167.302 19.208C167.014 18.872 166.786 18.482 166.618 18.038C166.45 17.594 166.366 17.108 166.366 16.58C166.366 15.776 166.474 15.026 166.69 14.33C166.906 13.634 167.218 13.028 167.626 12.512C168.034 11.984 168.532 11.57 169.12 11.27C169.72 10.97 170.392 10.82 171.136 10.82C171.772 10.82 172.288 10.964 172.684 11.252C173.08 11.54 173.338 11.912 173.458 12.368H173.782L174.88 7.148H177.166L176.05 12.368L174.88 17.858ZM170.524 18.092C170.956 18.092 171.34 18.008 171.676 17.84C172.012 17.66 172.288 17.426 172.504 17.138C172.732 16.85 172.906 16.514 173.026 16.13C173.146 15.734 173.206 15.32 173.206 14.888C173.206 14.324 173.044 13.868 172.72 13.52C172.396 13.16 171.964 12.98 171.424 12.98C170.992 12.98 170.608 13.07 170.272 13.25C169.936 13.418 169.654 13.646 169.426 13.934C169.198 14.222 169.024 14.564 168.904 14.96C168.784 15.344 168.724 15.752 168.724 16.184C168.724 16.688 168.868 17.132 169.156 17.516C169.456 17.9 169.912 18.092 170.524 18.092Z" fill="#F4EADE"/>
</svg>
