<svg width="123" height="27" viewBox="0 0 123 27" fill="none" xmlns="http://www.w3.org/2000/svg">
<path d="M10.2168 4C11.1554 4.00023 11.9639 4.66934 12.1514 5.60059L12.3525 6.59961H22.0244C23.1152 6.59961 23.9998 7.49521 24 8.59961V19.7002C23.9998 20.6672 23.3218 21.4734 22.4209 21.6592C22.1517 22.4395 21.4182 23 20.5557 23H1.9873C0.89659 22.9998 0.0127885 22.1044 0.0126953 21V10.5684C0.00463607 10.495 0 10.4201 0 10.3447V7.2998C7.54454e-05 6.33269 0.678059 5.52556 1.5791 5.33984C1.84842 4.55966 2.5819 4.00005 3.44434 4H10.2168ZM1.97559 6.7998C1.70291 6.7998 1.48154 7.02374 1.48145 7.2998V13.2363C1.48148 13.2742 1.48616 13.3111 1.49414 13.3467V21C1.49423 21.2759 1.71478 21.4998 1.9873 21.5H20.5557C20.8283 21.4999 21.0497 21.276 21.0498 21V9.90039C21.0498 9.62429 20.8283 9.40045 20.5557 9.40039H9.6748L9.26367 7.20703C9.21946 6.97103 9.01557 6.7998 8.77832 6.7998H1.97559Z" fill="#F4EADE"/>
<path d="M36.178 23.6H33.91L36.124 13.214L35.944 13.088L35.116 13.7L33.946 12.08L34.918 11.36C35.17 11.18 35.428 11.048 35.692 10.964C35.968 10.868 36.232 10.82 36.484 10.82C36.964 10.82 37.384 10.958 37.744 11.234C38.104 11.51 38.326 11.888 38.41 12.368H38.734C39.322 11.336 40.282 10.82 41.614 10.82C42.022 10.82 42.412 10.898 42.784 11.054C43.156 11.21 43.48 11.438 43.756 11.738C44.044 12.038 44.266 12.41 44.422 12.854C44.59 13.286 44.674 13.784 44.674 14.348C44.674 15.056 44.584 15.764 44.404 16.472C44.236 17.18 43.966 17.816 43.594 18.38C43.222 18.932 42.742 19.382 42.154 19.73C41.578 20.078 40.882 20.252 40.066 20.252C39.682 20.252 39.346 20.204 39.058 20.108C38.77 20.024 38.524 19.91 38.32 19.766C38.116 19.622 37.948 19.46 37.816 19.28C37.684 19.088 37.594 18.896 37.546 18.704H37.222L36.178 23.6ZM39.634 18.092C40.078 18.092 40.468 18.014 40.804 17.858C41.14 17.69 41.416 17.462 41.632 17.174C41.86 16.886 42.028 16.544 42.136 16.148C42.244 15.752 42.298 15.32 42.298 14.852C42.298 14.348 42.136 13.91 41.812 13.538C41.488 13.166 41.038 12.98 40.462 12.98C40.054 12.98 39.688 13.064 39.364 13.232C39.04 13.388 38.764 13.61 38.536 13.898C38.308 14.186 38.128 14.528 37.996 14.924C37.876 15.32 37.816 15.752 37.816 16.22C37.816 16.784 37.978 17.24 38.302 17.588C38.626 17.924 39.07 18.092 39.634 18.092ZM48.2255 13.196L48.0455 13.088L46.6235 14.132L45.4175 12.512L46.8575 11.432C47.1335 11.228 47.4215 11.078 47.7215 10.982C48.0335 10.874 48.3275 10.82 48.6035 10.82C49.0835 10.82 49.5035 10.952 49.8635 11.216C50.2235 11.48 50.4395 11.852 50.5115 12.332H50.8355C51.0755 11.828 51.4115 11.45 51.8435 11.198C52.2755 10.946 52.7615 10.82 53.3015 10.82C53.9855 10.82 54.5375 11.036 54.9575 11.468C55.3895 11.888 55.6055 12.476 55.6055 13.232C55.6055 13.388 55.5935 13.544 55.5695 13.7C55.5575 13.844 55.5275 14.024 55.4795 14.24L55.3895 14.636L52.9775 14.816L53.0315 14.564C53.0675 14.384 53.0855 14.222 53.0855 14.078C53.0855 13.73 52.9895 13.454 52.7975 13.25C52.6055 13.046 52.3175 12.944 51.9335 12.944C51.4535 12.944 51.0695 13.106 50.7815 13.43C50.5055 13.754 50.3015 14.216 50.1695 14.816L49.5215 17.84H51.6815V20H45.5255V17.84H47.2535L48.2255 13.196ZM66.087 14.42C66.087 15.26 65.967 16.04 65.727 16.76C65.487 17.468 65.133 18.08 64.665 18.596C64.197 19.112 63.609 19.52 62.901 19.82C62.205 20.108 61.395 20.252 60.471 20.252C59.943 20.252 59.445 20.174 58.977 20.018C58.521 19.862 58.119 19.634 57.771 19.334C57.423 19.022 57.147 18.644 56.943 18.2C56.739 17.756 56.637 17.252 56.637 16.688C56.637 15.764 56.781 14.942 57.069 14.222C57.357 13.49 57.747 12.872 58.239 12.368C58.743 11.864 59.331 11.48 60.003 11.216C60.687 10.952 61.419 10.82 62.199 10.82C62.763 10.82 63.285 10.91 63.765 11.09C64.245 11.258 64.653 11.498 64.989 11.81C65.337 12.122 65.607 12.5 65.799 12.944C65.991 13.388 66.087 13.88 66.087 14.42ZM60.813 18.128C61.245 18.116 61.641 18.02 62.001 17.84C62.373 17.66 62.685 17.426 62.937 17.138C63.201 16.838 63.405 16.49 63.549 16.094C63.693 15.698 63.765 15.278 63.765 14.834C63.765 14.21 63.597 13.742 63.261 13.43C62.925 13.106 62.475 12.944 61.911 12.944C61.479 12.944 61.083 13.04 60.723 13.232C60.363 13.412 60.051 13.658 59.787 13.97C59.523 14.27 59.319 14.618 59.175 15.014C59.031 15.41 58.959 15.824 58.959 16.256C58.959 16.868 59.127 17.336 59.463 17.66C59.799 17.972 60.249 18.128 60.813 18.128ZM73.9765 18.704H73.6525C73.5205 18.908 73.3705 19.106 73.2025 19.298C73.0345 19.478 72.8305 19.64 72.5905 19.784C72.3505 19.928 72.0625 20.042 71.7265 20.126C71.3905 20.21 71.0005 20.252 70.5565 20.252C70.1245 20.252 69.7165 20.18 69.3325 20.036C68.9605 19.892 68.6365 19.676 68.3605 19.388C68.0845 19.1 67.8625 18.74 67.6945 18.308C67.5385 17.864 67.4605 17.348 67.4605 16.76C67.4605 16.016 67.5685 15.29 67.7845 14.582C68.0125 13.862 68.3425 13.226 68.7745 12.674C69.2065 12.11 69.7405 11.66 70.3765 11.324C71.0245 10.988 71.7745 10.82 72.6265 10.82C73.3585 10.82 73.9105 10.964 74.2825 11.252C74.6665 11.528 74.9065 11.9 75.0025 12.368H75.3265L75.5965 11.072H77.8645L75.5065 22.196C75.4105 22.604 75.2065 22.94 74.8945 23.204C74.5825 23.468 74.2225 23.6 73.8145 23.6H68.2705V21.44H72.9145C73.2385 21.44 73.4365 21.26 73.5085 20.9L73.9765 18.704ZM71.7265 18.092C72.1585 18.092 72.5545 18.002 72.9145 17.822C73.2865 17.642 73.6045 17.402 73.8685 17.102C74.1445 16.802 74.3545 16.454 74.4985 16.058C74.6545 15.662 74.7325 15.248 74.7325 14.816C74.7325 14.24 74.5645 13.79 74.2285 13.466C73.8925 13.142 73.4185 12.98 72.8065 12.98C72.3505 12.98 71.9365 13.07 71.5645 13.25C71.1925 13.43 70.8745 13.67 70.6105 13.97C70.3585 14.258 70.1605 14.6 70.0165 14.996C69.8725 15.38 69.8005 15.776 69.8005 16.184C69.8005 16.82 69.9745 17.3 70.3225 17.624C70.6825 17.936 71.1505 18.092 71.7265 18.092ZM81.2899 13.196L81.1099 13.088L79.6879 14.132L78.4819 12.512L79.9219 11.432C80.1979 11.228 80.4859 11.078 80.7859 10.982C81.0979 10.874 81.3919 10.82 81.6679 10.82C82.1479 10.82 82.5679 10.952 82.9279 11.216C83.2879 11.48 83.5039 11.852 83.5759 12.332H83.8999C84.1399 11.828 84.4759 11.45 84.9079 11.198C85.3399 10.946 85.8259 10.82 86.3659 10.82C87.0499 10.82 87.6019 11.036 88.0219 11.468C88.4539 11.888 88.6699 12.476 88.6699 13.232C88.6699 13.388 88.6579 13.544 88.6339 13.7C88.6219 13.844 88.5919 14.024 88.5439 14.24L88.4539 14.636L86.0419 14.816L86.0959 14.564C86.1319 14.384 86.1499 14.222 86.1499 14.078C86.1499 13.73 86.0539 13.454 85.8619 13.25C85.6699 13.046 85.3819 12.944 84.9979 12.944C84.5179 12.944 84.1339 13.106 83.8459 13.43C83.5699 13.754 83.3659 14.216 83.2339 14.816L82.5859 17.84H84.7459V20H78.5899V17.84H80.3179L81.2899 13.196ZM97.7294 17.858L97.9094 17.984L98.7734 17.372L99.9074 19.064L98.8454 19.784C98.3774 20.096 97.8854 20.252 97.3694 20.252C96.9134 20.252 96.5054 20.126 96.1454 19.874C95.7854 19.622 95.5574 19.268 95.4614 18.812H95.1374C95.0294 19.016 94.9034 19.208 94.7594 19.388C94.6154 19.556 94.4354 19.706 94.2194 19.838C94.0154 19.958 93.7694 20.054 93.4814 20.126C93.2054 20.21 92.8754 20.252 92.4914 20.252C92.0234 20.252 91.5914 20.162 91.1954 19.982C90.7994 19.79 90.4514 19.532 90.1514 19.208C89.8634 18.872 89.6354 18.482 89.4674 18.038C89.2994 17.594 89.2154 17.108 89.2154 16.58C89.2154 15.776 89.3234 15.026 89.5394 14.33C89.7554 13.634 90.0674 13.028 90.4754 12.512C90.8834 11.984 91.3814 11.57 91.9694 11.27C92.5694 10.97 93.2414 10.82 93.9854 10.82C94.6454 10.82 95.1674 10.952 95.5514 11.216C95.9354 11.48 96.1934 11.828 96.3254 12.26H96.6494L96.9014 11.072H99.1694L97.7294 17.858ZM93.3734 18.092C93.8054 18.092 94.1894 18.008 94.5254 17.84C94.8614 17.66 95.1374 17.426 95.3534 17.138C95.5814 16.85 95.7554 16.514 95.8754 16.13C95.9954 15.734 96.0554 15.32 96.0554 14.888C96.0554 14.324 95.8934 13.868 95.5694 13.52C95.2454 13.16 94.8134 12.98 94.2734 12.98C93.8414 12.98 93.4574 13.07 93.1214 13.25C92.7854 13.418 92.5034 13.646 92.2754 13.934C92.0474 14.222 91.8734 14.564 91.7534 14.96C91.6334 15.344 91.5734 15.752 91.5734 16.184C91.5734 16.688 91.7174 17.132 92.0054 17.516C92.3054 17.9 92.7614 18.092 93.3734 18.092ZM107.887 13.736C107.911 13.64 107.923 13.556 107.923 13.484C107.923 13.148 107.761 12.98 107.437 12.98C107.245 12.98 107.101 13.046 107.005 13.178C106.909 13.298 106.843 13.448 106.807 13.628L105.439 20H103.171L104.503 13.736C104.527 13.616 104.539 13.532 104.539 13.484C104.539 13.148 104.383 12.98 104.071 12.98C103.723 12.98 103.507 13.196 103.423 13.628L102.055 20H99.8049L101.695 11.072H103.963L103.783 11.936H104.107C104.203 11.564 104.383 11.288 104.647 11.108C104.911 10.916 105.211 10.82 105.547 10.82C105.943 10.82 106.243 10.928 106.447 11.144C106.651 11.36 106.783 11.624 106.843 11.936H107.167C107.299 11.612 107.497 11.348 107.761 11.144C108.037 10.928 108.391 10.82 108.823 10.82C109.327 10.82 109.711 10.982 109.975 11.306C110.251 11.63 110.389 12.02 110.389 12.476C110.389 12.56 110.383 12.638 110.371 12.71C110.371 12.77 110.359 12.848 110.335 12.944L109.273 17.858L109.453 17.984L110.065 17.552L111.199 19.244L110.389 19.784C110.149 19.952 109.903 20.072 109.651 20.144C109.411 20.216 109.171 20.252 108.931 20.252C108.667 20.252 108.415 20.204 108.175 20.108C107.947 20.024 107.743 19.898 107.563 19.73C107.383 19.562 107.239 19.358 107.131 19.118C107.035 18.866 106.987 18.584 106.987 18.272C106.987 18.104 107.011 17.9 107.059 17.66L107.887 13.736ZM116.946 12.872C116.814 12.872 116.676 12.89 116.532 12.926C116.4 12.95 116.274 12.992 116.154 13.052C116.034 13.112 115.932 13.196 115.848 13.304C115.776 13.4 115.74 13.52 115.74 13.664C115.74 13.916 115.884 14.102 116.172 14.222C116.46 14.342 116.952 14.444 117.648 14.528C118.428 14.624 119.058 14.864 119.538 15.248C120.018 15.62 120.258 16.16 120.258 16.868C120.258 17.924 119.886 18.752 119.142 19.352C118.41 19.952 117.39 20.252 116.082 20.252C115.422 20.252 114.852 20.156 114.372 19.964C113.904 19.772 113.514 19.532 113.202 19.244C112.902 18.956 112.674 18.638 112.518 18.29C112.362 17.942 112.278 17.612 112.266 17.3L114.498 16.76C114.534 17.156 114.702 17.498 115.002 17.786C115.302 18.062 115.758 18.2 116.37 18.2C116.79 18.2 117.156 18.134 117.468 18.002C117.78 17.87 117.936 17.636 117.936 17.3C117.936 17.048 117.816 16.85 117.576 16.706C117.336 16.55 116.892 16.442 116.244 16.382C115.38 16.31 114.69 16.064 114.174 15.644C113.67 15.224 113.418 14.666 113.418 13.97C113.418 13.466 113.52 13.016 113.724 12.62C113.94 12.224 114.222 11.894 114.57 11.63C114.918 11.366 115.32 11.168 115.776 11.036C116.244 10.892 116.73 10.82 117.234 10.82C117.858 10.82 118.38 10.904 118.8 11.072C119.22 11.24 119.562 11.45 119.826 11.702C120.09 11.954 120.282 12.23 120.402 12.53C120.534 12.818 120.618 13.088 120.654 13.34L118.458 13.916C118.41 13.592 118.26 13.34 118.008 13.16C117.756 12.968 117.402 12.872 116.946 12.872Z" fill="#F4EADE"/>
</svg>
