<svg width="86" height="27" viewBox="0 0 86 27" fill="none" xmlns="http://www.w3.org/2000/svg">
<path d="M18.375 25.83H10.71L13.055 8.04996L13.825 3.84996H12.985L12.285 7.62995L7.55995 25.83H-4.88777e-05L3.32495 1.32995H7.52495L4.68995 19.11L3.88495 23.1H4.72495L5.45995 19.53L10.22 1.32995H17.57L15.19 19.53L14.455 23.1H15.295L16.1 19.11L20.23 1.32995H24.43L18.375 25.83ZM35.4306 25.41C34.9639 25.7366 34.4856 25.97 33.9956 26.11C33.5056 26.25 33.0273 26.32 32.5606 26.32C32.0473 26.32 31.5573 26.2266 31.0906 26.04C30.6239 25.8766 30.2156 25.6433 29.8656 25.34C29.5156 25.0133 29.2356 24.6283 29.0256 24.185C28.8389 23.7183 28.7456 23.205 28.7456 22.645C28.7456 22.2016 28.7923 21.7933 28.8856 21.42L30.9856 12.635L30.6356 12.39L25.9456 15.61L23.7406 12.32L28.8156 8.88996C29.2823 8.56329 29.7606 8.32996 30.2506 8.18996C30.7406 8.04995 31.2189 7.97995 31.6856 7.97995C32.1989 7.97995 32.6889 8.07329 33.1556 8.25995C33.6223 8.42329 34.0306 8.66829 34.3806 8.99495C34.7306 9.29829 34.9989 9.68329 35.1856 10.15C35.3956 10.5933 35.5006 11.095 35.5006 11.655C35.5006 12.0983 35.4539 12.5066 35.3606 12.88L33.2606 21.665L33.6106 21.91L38.3006 18.69L40.5056 21.98L35.4306 25.41ZM38.4756 3.32496C38.4756 3.79162 38.3823 4.23496 38.1956 4.65496C38.0323 5.05162 37.7989 5.40162 37.4956 5.70495C37.1923 5.98495 36.8306 6.21829 36.4106 6.40496C36.0139 6.56829 35.5939 6.64995 35.1506 6.64995C34.6839 6.64995 34.2523 6.56829 33.8556 6.40496C33.4589 6.21829 33.1089 5.98495 32.8056 5.70495C32.5023 5.40162 32.2573 5.05162 32.0706 4.65496C31.9073 4.23496 31.8256 3.79162 31.8256 3.32496C31.8256 2.85829 31.9073 2.42662 32.0706 2.02996C32.2573 1.60996 32.5023 1.25996 32.8056 0.979955C33.1089 0.676621 33.4589 0.443288 33.8556 0.279955C34.2523 0.0932883 34.6839 -4.51803e-05 35.1506 -4.51803e-05C35.5939 -4.51803e-05 36.0139 0.0932883 36.4106 0.279955C36.8306 0.443288 37.1923 0.676621 37.4956 0.979955C37.7989 1.25996 38.0323 1.60996 38.1956 2.02996C38.3823 2.42662 38.4756 2.85829 38.4756 3.32496ZM52.4863 22.12C53.3496 22.12 54.0846 21.98 54.6913 21.7C55.3213 21.42 55.8463 21.0583 56.2663 20.615C56.6863 20.1483 57.0129 19.6233 57.2463 19.04C57.5029 18.4333 57.7013 17.8266 57.8413 17.22L57.9813 16.59H62.6013L62.4613 17.22C62.1346 18.7366 61.6913 20.0666 61.1313 21.21C60.5713 22.33 59.8596 23.275 58.9963 24.045C58.1329 24.7916 57.1063 25.3633 55.9163 25.76C54.7263 26.1333 53.3263 26.32 51.7163 26.32C50.6196 26.32 49.6163 26.1566 48.7063 25.83C47.7963 25.5033 47.0146 25.025 46.3613 24.395C45.7079 23.765 45.1946 23.0066 44.8213 22.12C44.4713 21.21 44.2963 20.1716 44.2963 19.005C44.2963 18.585 44.3196 18.165 44.3663 17.745C44.4129 17.325 44.4946 16.8466 44.6113 16.31L45.7663 10.85C46.4896 7.46662 47.7729 4.95829 49.6163 3.32496C51.4596 1.66829 53.8629 0.839954 56.8263 0.839954C57.9929 0.839954 59.0313 1.02662 59.9413 1.39996C60.8746 1.77329 61.6563 2.28662 62.2863 2.93995C62.9396 3.56995 63.4296 4.31662 63.7563 5.17995C64.1063 6.04329 64.2813 6.96495 64.2813 7.94495C64.2813 8.27162 64.2579 8.59829 64.2113 8.92496C64.1646 9.25162 64.1063 9.58996 64.0363 9.93996L63.8963 10.57H59.2763L59.4163 9.93996C59.5563 9.37996 59.6263 8.84329 59.6263 8.32996C59.6263 7.41996 59.3579 6.64995 58.8213 6.01995C58.3079 5.36662 57.3979 5.03995 56.0913 5.03995C55.3213 5.03995 54.6213 5.19162 53.9913 5.49496C53.3613 5.77496 52.8129 6.17162 52.3463 6.68495C51.8796 7.17495 51.4829 7.75829 51.1563 8.43496C50.8529 9.08829 50.6196 9.77662 50.4563 10.5L49.1613 16.66C49.0913 17.01 49.0329 17.36 48.9863 17.71C48.9396 18.0366 48.9163 18.3516 48.9163 18.655C48.9163 19.705 49.1846 20.545 49.7213 21.175C50.2813 21.805 51.2029 22.12 52.4863 22.12ZM80.9869 9.20496C81.0569 8.85496 81.0919 8.53996 81.0919 8.25995C81.0919 7.34996 80.7653 6.61496 80.1119 6.05496C79.4586 5.47162 78.4553 5.17995 77.1019 5.17995C76.5653 5.17995 76.0403 5.23829 75.5269 5.35495C75.0136 5.47162 74.5586 5.65829 74.1619 5.91496C73.7653 6.14829 73.4503 6.45162 73.2169 6.82495C72.9836 7.19829 72.8669 7.62996 72.8669 8.11995C72.8669 8.93662 73.2053 9.57829 73.8819 10.045C74.5819 10.5116 75.7019 10.8733 77.2419 11.13C79.4119 11.48 81.1153 12.18 82.3519 13.23C83.6119 14.2566 84.2419 15.7616 84.2419 17.745C84.2419 19.075 83.9969 20.265 83.5069 21.315C83.0403 22.365 82.3636 23.2633 81.4769 24.01C80.6136 24.7566 79.5636 25.3283 78.3269 25.725C77.0903 26.1216 75.7019 26.32 74.1619 26.32C72.6919 26.32 71.4086 26.1333 70.3119 25.76C69.2153 25.3633 68.3053 24.8383 67.5819 24.185C66.8819 23.5083 66.3569 22.7266 66.0069 21.84C65.6569 20.9533 65.4819 19.9966 65.4819 18.97C65.4819 18.6666 65.4936 18.3633 65.5169 18.06C65.5403 17.7566 65.5869 17.4416 65.6569 17.115L65.8319 16.31H70.4519L70.3119 16.905C70.2186 17.3483 70.1719 17.85 70.1719 18.41C70.1719 19.53 70.5219 20.405 71.2219 21.035C71.9453 21.665 73.0186 21.98 74.4419 21.98C75.9819 21.98 77.1836 21.665 78.0469 21.035C78.9103 20.3816 79.3419 19.495 79.3419 18.375C79.3419 17.4883 78.9686 16.8 78.2219 16.31C77.4986 15.82 76.2736 15.4466 74.5469 15.19C73.7303 15.0733 72.9253 14.8633 72.1319 14.56C71.3619 14.2566 70.6736 13.8366 70.0669 13.3C69.4603 12.7633 68.9703 12.11 68.5969 11.34C68.2236 10.5466 68.0369 9.61329 68.0369 8.53996C68.0369 7.44329 68.2353 6.42829 68.6319 5.49496C69.0519 4.53829 69.6586 3.72162 70.4519 3.04496C71.2686 2.34495 72.2603 1.80829 73.4269 1.43496C74.6169 1.03829 75.9819 0.839954 77.5219 0.839954C78.8286 0.839954 79.9953 1.00329 81.0219 1.32995C82.0486 1.65662 82.9119 2.11162 83.6119 2.69496C84.3353 3.27829 84.8836 3.97829 85.2569 4.79496C85.6303 5.58829 85.8169 6.45162 85.8169 7.38496C85.8169 7.64162 85.8053 7.89829 85.7819 8.15496C85.7586 8.41162 85.7119 8.70329 85.6419 9.02996L85.5019 9.65996H80.8819L80.9869 9.20496Z" fill="#F4EADE"/>
</svg>
